# xmcd
#
# Track frame offsets:
#	150
#	12722
#	25072
#	39142
#	55775
#	71700
#	85662
#	97745
#	116175
#	131315
#	147855
#	160955
#
# Disc length: 2308 seconds
#
# Revision: 1
# Processed by: cddbd v1.4PL0 Copyright (c) Steve Scherf et al.
# Submitted via: audiograbber 1.81.02
#
DISCID=9409020c
DTITLE=Jazz Gitti - Alles Pico Bello
DYEAR=1993
DGENRE=
TTITLE0=Alles Pico Bello
TTITLE1=Der Bauch muß weg
TTITLE2=Es kommt so wie´s kommt
TTITLE3=Es geht nirgends so zu
TTITLE4=Halli, Hallo
TTITLE5=Nur net hudl´n
TTITLE6=Wo warst du bis jetzt
TTITLE7=I möcht net ohne di sein
TTITLE8=Des gibt´s net
TTITLE9=Du bist a Sensation
TTITLE10=Du bleibst immer mein Kind
TTITLE11=Jetzt gemmas an
EXTD=
EXTT0=
EXTT1=
EXTT2=
EXTT3=
EXTT4=
EXTT5=
EXTT6=
EXTT7=
EXTT8=
EXTT9=
EXTT10=
EXTT11=
PLAYORDER=
